<?xml version="1.0" standalone="no"?>
<!DOCTYPE svg PUBLIC "-//W3C//DTD SVG 20010904//EN"
 "http://www.w3.org/TR/2001/REC-SVG-20010904/DTD/svg10.dtd">
<svg version="1.0" xmlns="http://www.w3.org/2000/svg"
 width="2151.000000pt" height="2151.000000pt" viewBox="0 0 2151.000000 2151.000000"
 preserveAspectRatio="xMidYMid meet">
<metadata>
Created by potrace 1.14, written by Peter Selinger 2001-2017
</metadata>
<g transform="translate(0.000000,2151.000000) scale(0.100000,-0.100000)"
fill="#000000" stroke="none">
<path d="M13658 17775 c-670 -109 -1487 -619 -2538 -1584 -195 -179 -896 -883
-1101 -1106 -1576 -1710 -3066 -3766 -4058 -5600 -128 -236 -393 -774 -489
-991 -319 -723 -487 -1257 -569 -1809 -25 -169 -25 -674 0 -855 51 -363 146
-664 293 -930 325 -588 862 -940 1674 -1099 736 -143 1790 -113 2777 80 1289
251 2617 810 3788 1592 951 635 1831 1482 2568 2470 245 328 558 802 598 905
27 69 37 214 20 292 -63 292 -381 468 -667 370 -135 -47 -203 -114 -354 -350
-405 -633 -826 -1157 -1364 -1696 -474 -475 -860 -798 -1341 -1121 -1288 -865
-2717 -1407 -4120 -1562 -315 -35 -501 -45 -840 -45 -644 1 -1079 78 -1415
250 -332 169 -523 467 -595 929 -22 140 -30 436 -16 565 77 714 486 1724 1198
2959 1604 2783 4332 5980 5975 7002 396 246 767 377 889 313 66 -33 131 -190
166 -399 25 -152 25 -650 0 -870 -75 -654 -231 -1348 -462 -2055 -418 -1279
-951 -2281 -1675 -3150 -135 -162 -163 -204 -189 -284 -62 -190 -16 -383 123
-522 183 -183 462 -201 674 -45 140 103 706 864 989 1331 817 1345 1456 3310
1563 4802 13 187 13 567 0 723 -53 610 -240 1037 -566 1285 -95 71 -268 154
-389 186 -86 22 -126 27 -280 30 -124 2 -207 -1 -267 -11z"/>
</g>
</svg>
