<?xml version="1.0" standalone="no"?>
<!DOCTYPE svg PUBLIC "-//W3C//DTD SVG 20010904//EN"
 "http://www.w3.org/TR/2001/REC-SVG-20010904/DTD/svg10.dtd">
<svg version="1.0" xmlns="http://www.w3.org/2000/svg"
 width="1012.000000pt" height="1012.000000pt" viewBox="0 0 1012.000000 1012.000000"
 preserveAspectRatio="xMidYMid meet">
<metadata>
Created by potrace 1.14, written by Peter Selinger 2001-2017
</metadata>
<g transform="translate(0.000000,1012.000000) scale(0.100000,-0.100000)"
fill="#000000" stroke="none">
<path d="M1495 10101 c-284 -51 -559 -196 -769 -407 -197 -196 -330 -437 -403
-730 -16 -65 -17 -308 -20 -3854 -4 -4204 -9 -3879 62 -4096 148 -450 500
-802 951 -949 197 -65 221 -66 1174 -62 829 3 858 4 940 24 173 43 348 118
479 207 46 31 86 56 89 56 3 0 47 -27 99 -61 141 -91 322 -167 488 -204 108
-25 415 -31 543 -11 185 28 414 118 572 225 41 28 79 51 83 51 5 0 36 -20 70
-44 113 -80 307 -168 454 -205 164 -41 198 -42 1263 -39 939 4 1031 6 1100 22
289 68 519 195 726 401 181 180 296 366 372 606 67 209 63 -82 59 4084 l-3
3770 -21 85 c-76 301 -197 517 -407 725 -206 204 -429 330 -706 397 -78 19
-123 21 -570 25 -510 5 -669 -2 -876 -38 -419 -72 -832 -241 -1174 -478 -371
-258 -714 -642 -947 -1063 l-59 -106 -53 96 c-245 444 -605 841 -999 1104
-398 267 -876 434 -1362 478 -63 5 -326 10 -585 9 -404 -1 -484 -3 -570 -18z
m1254 -580 c542 -96 943 -299 1306 -665 273 -274 421 -503 650 -1006 133 -292
151 -318 254 -367 46 -22 63 -25 125 -21 132 9 204 70 275 233 24 55 75 172
113 260 165 379 366 675 635 936 306 296 665 493 1070 588 261 61 287 64 812
68 540 5 557 4 721 -64 276 -114 471 -352 535 -656 13 -59 15 -573 15 -3761 0
-2537 -3 -3711 -11 -3752 -31 -177 -121 -354 -242 -477 -106 -108 -223 -178
-387 -233 l-85 -29 -980 -3 c-1087 -3 -1054 -5 -1222 63 -111 45 -205 109
-306 209 -121 120 -208 148 -335 111 -43 -13 -71 -33 -150 -108 -53 -51 -123
-109 -155 -130 -299 -198 -703 -197 -998 4 -35 24 -103 81 -151 127 -96 92
-153 122 -238 122 -86 0 -145 -30 -240 -123 -142 -139 -261 -207 -439 -253
l-94 -24 -791 0 c-747 0 -795 1 -871 19 -349 85 -598 339 -681 696 -18 77 -19
208 -19 3780 l0 3700 22 88 c46 178 123 318 243 437 116 117 247 191 415 236
l90 24 495 -3 c457 -3 504 -5 619 -26z"/>
<path d="M1760 5060 l0 -3600 675 0 675 0 0 2077 c0 1142 3 2074 6 2070 6 -6
67 -145 284 -657 78 -184 168 -396 200 -470 32 -74 122 -286 200 -470 78 -184
168 -396 200 -470 32 -74 122 -286 200 -470 78 -184 201 -472 272 -640 72
-168 171 -399 220 -515 145 -341 191 -446 198 -450 3 -2 25 40 48 93 49 115
253 595 452 1062 78 184 168 396 200 470 32 74 122 286 200 470 78 184 168
396 200 470 32 74 122 286 200 470 78 184 195 459 260 610 64 151 139 327 166
390 l49 115 3 -2077 2 -2078 850 0 850 0 0 3601 0 3601 -397 -4 c-357 -4 -410
-7 -510 -26 -301 -59 -539 -186 -758 -406 -223 -224 -291 -339 -530 -891 -48
-110 -117 -270 -155 -355 -37 -85 -98 -225 -135 -310 -37 -85 -98 -225 -135
-310 -38 -85 -107 -245 -155 -355 -90 -207 -136 -313 -260 -595 -40 -91 -107
-246 -150 -345 -43 -99 -81 -183 -84 -187 -3 -4 -28 41 -56 100 -27 59 -79
172 -116 252 -37 80 -131 285 -209 455 -78 171 -168 366 -200 435 -32 69 -95
206 -140 305 -45 99 -108 236 -140 305 -64 139 -126 274 -255 555 -236 515
-280 599 -398 758 -209 283 -503 484 -823 566 -159 40 -295 51 -660 51 l-344
0 0 -3600z"/>
</g>
</svg>
